<svg xmlns="http://www.w3.org/2000/svg" width="400" height="250" viewBox="0 0 400 250"><path d="M0,0H400V250H0Z" fill="#eee"/><path d="M19.076,111.49H123.924q18.935,0,19.076-18.653V18.794Q142.859.141,123.924,0H19.076Q.141,0,0,18.794V92.837q.141,18.794,19.076,18.794v-.141Zm81.532-55.816a13.63,13.63,0,0,0-9.113-3.744,12.8,12.8,0,0,0-9.115,3.744L55.108,80.119,43.8,69.946a12.651,12.651,0,0,0-8.055-3.533A11.343,11.343,0,0,0,27.979,69.8L9.891,86.054v-66.7q.141-9.467,9.326-9.467H123.783q4.522,0,6.924,2.332t2.4,7.135V86.2l-32.5-30.522Zm-55.392.707a13.9,13.9,0,0,0,9.963-4.24,14.242,14.242,0,0,0,0-20.136,14.572,14.572,0,0,0-9.963-4.311A14.73,14.73,0,0,0,35.113,32a14.2,14.2,0,0,0-4.167,10.1,14.035,14.035,0,0,0,4.167,9.963,14.721,14.721,0,0,0,10.1,4.31Z" transform="translate(129 69)" fill="#aaa"/></svg>